<svg xmlns="http://www.w3.org/2000/svg" width="104" height="69" viewBox="0 0 104 69"><defs><linearGradient id="rt43a" x1="51.99" x2="51.99" y1="69" y2="0" gradientUnits="userSpaceOnUse"><stop offset="0" stop-color="#fff"/><stop offset="1" stop-color="#fff" stop-opacity=".3"/></linearGradient></defs><g><g><path fill="url(#rt43a)" d="M52.11 33.331c1.682-1.302 3.146-2.491 4.69-3.622C69.59 20.34 82.4 10.984 95.183 1.61c1.29-.945 2.64-1.746 4.583-1.559 1.887.182 3.294.927 3.92 2.265.611 1.312.32 2.556-1.043 3.572-2.361 1.76-4.758 3.494-7.14 5.238-13.259 9.707-26.517 19.416-39.778 29.122-2.427 1.776-5.039 1.757-7.484-.033C32.96 29.029 17.669 17.851 2.422 6.642 1.478 5.947.535 5.072.195 4.159-.375 2.63.496 1.307 2.43.483c1.94-.826 3.987-.599 5.795.714a6398.562 6398.562 0 0 1 20.848 15.226c7.56 5.537 15.104 11.085 23.038 16.908zM52.08 60.6l29.377-21.5c4.766-3.486 9.533-6.973 14.303-10.457 1.632-1.194 3.533-1.475 5.627-.778 1.844.614 2.984 2.105 2.484 3.588-.28.828-.994 1.677-1.826 2.29C89.752 42.79 77.405 51.8 65.075 60.82a2907.19 2907.19 0 0 0-9.3 6.841c-2.4 1.772-5.066 1.79-7.467.033-15.385-11.258-30.777-22.51-46.13-33.791C1.33 33.28.54 32.49.18 31.67c-.636-1.45.386-2.946 2.167-3.702 1.915-.813 4.082-.63 5.826.63 5.058 3.651 10.068 7.34 15.095 11.015 9.07 6.63 18.137 13.262 27.208 19.89.46.337.948.65 1.604 1.096z"/></g></g></svg>